<svg xmlns="http://www.w3.org/2000/svg" xml:space="preserve" viewBox="0 0 512 512"><circle cx="256" cy="255.9" r="128" style="fill:#fff"/><path d="M34.3 384C105 506.4 261.6 548.3 384 477.7S548.3 250.4 477.7 128 250.4-36.3 128 34.3C5.6 105-36.3 261.6 34.3 384m332.5-192c35.3 61.2 14.4 139.5-46.8 174.8S180.5 381.2 145.2 320 130.8 180.5 192 145.2c61.2-35.4 139.5-14.4 174.8 46.8" style="fill:none"/><linearGradient id="a" x1="34.355" x2="477.629" y1="354.005" y2="354.005" gradientTransform="matrix(1 0 0 -1 0 514)" gradientUnits="userSpaceOnUse"><stop offset="0" style="stop-color:#d93025"/><stop offset="1" style="stop-color:#ea4335"/></linearGradient><path d="M256 128h221.6C407 5.6 250.5-36.3 128.1 34.3 89.2 56.8 56.8 89.1 34.4 128l110.8 192h.1c-35.4-61.1-14.6-139.3 46.5-174.7 19.4-11.4 41.6-17.3 64.2-17.3" style="fill:url(#a)"/><circle cx="256" cy="256" r="101.3" style="fill:#1a73e8"/><linearGradient id="b" x1="221.057" x2="442.694" y1="5.455" y2="389.341" gradientTransform="matrix(1 0 0 -1 0 514)" gradientUnits="userSpaceOnUse"><stop offset="0" style="stop-color:#fcc934"/><stop offset="1" style="stop-color:#fbbc04"/></linearGradient><path d="M366.8 320 256 512c141.3 0 255.9-114.5 255.9-255.9 0-45-11.8-89.1-34.3-128H256v.1c70.6-.1 127.9 57 128.1 127.6 0 22.5-6 44.7-17.3 64.2" style="fill:url(#b)"/><linearGradient id="c" x1="283.689" x2="62.052" y1="18.014" y2="401.901" gradientTransform="matrix(1 0 0 -1 0 514)" gradientUnits="userSpaceOnUse"><stop offset="0" style="stop-color:#1e8e3e"/><stop offset="1" style="stop-color:#34a853"/></linearGradient><path d="M145.2 320 34.4 128.1C-36.3 250.5 5.6 407 128 477.7c38.9 22.4 83.1 34.3 128 34.3l110.8-192-.1-.1c-35.2 61.2-113.3 82.3-174.5 47.1-19.5-11.2-35.8-27.4-47-47" style="fill:url(#c)"/></svg>