<svg xmlns="http://www.w3.org/2000/svg" xml:space="preserve" viewBox="8.06 -0.07 495.87 512.11"><g transform="translate(.697 .72)scale(.98198)"><linearGradient id="a" x1="470.559" x2="50.986" y1="438.589" y2="33.772" gradientTransform="matrix(.982 0 0 -.982 -1.496 510.756)" gradientUnits="userSpaceOnUse"><stop offset=".048" style="stop-color:#fff44f"/><stop offset=".111" style="stop-color:#ffe847"/><stop offset=".225" style="stop-color:#ffc830"/><stop offset=".368" style="stop-color:#ff980e"/><stop offset=".401" style="stop-color:#ff8b16"/><stop offset=".462" style="stop-color:#ff672a"/><stop offset=".534" style="stop-color:#ff3647"/><stop offset=".705" style="stop-color:#e31587"/></linearGradient><path d="M494.1 174.3c-11-26.4-33.3-55-50.7-64 12.4 24.1 21.1 50 25.6 76.7v.4c-28.6-71.2-77-100-116.6-162.5-2-3.2-4-6.3-6-9.7-1.1-1.9-2-3.6-2.8-5.2-1.6-3.2-2.9-6.5-3.8-10 0-.3-.2-.6-.6-.7h-.5l-.1.1s-.1.1-.2.1l.1-.2c-63.5 37.2-85 106-87 140.4-25.4 1.7-49.6 11.1-69.6 26.8-2.1-1.8-4.3-3.4-6.5-4.9-5.8-20.2-6-41.5-.7-61.8-23.3 11.3-44 27.3-60.8 47h-.1c-10-12.7-9.3-54.6-8.7-63.3q-4.5 1.8-8.4 4.5c-8.8 6.3-17.1 13.4-24.7 21.2-8.7 8.8-16.6 18.3-23.6 28.3-16.2 23-27.8 49-33.9 76.6l-.3 1.7c-.5 2.2-2.2 13.4-2.5 15.8 0 .2 0 .4-.1.6C9.4 243.7 8 255.3 7.5 267v1.3c.2 139.6 113.6 252.5 253.2 252.3 122.8-.2 227.7-88.6 248.6-209.6.4-3.3.8-6.5 1.1-9.8 5.3-43-.3-86.6-16.3-126.9M202.8 372.2c1.2.6 2.3 1.2 3.5 1.7l.2.1c-1.2-.6-2.4-1.2-3.7-1.8m266.3-184.6v-.2z" style="fill:url(#a)"/><radialGradient id="b" cx="-7667.514" cy="9141.38" r="526.888" gradientTransform="matrix(.982 0 0 -.982 7973.807 9034.763)" gradientUnits="userSpaceOnUse"><stop offset=".129" style="stop-color:#ffbd4f"/><stop offset=".186" style="stop-color:#ffac31"/><stop offset=".247" style="stop-color:#ff9d17"/><stop offset=".283" style="stop-color:#ff980e"/><stop offset=".403" style="stop-color:#ff563b"/><stop offset=".467" style="stop-color:#ff3750"/><stop offset=".71" style="stop-color:#f5156c"/><stop offset=".782" style="stop-color:#eb0878"/><stop offset=".86" style="stop-color:#e50080"/></radialGradient><path d="M494.1 174.3c-11-26.4-33.3-55-50.7-64 12.4 24.1 21.1 50 25.6 76.7v.5c19.5 55.7 16.7 116.9-7.9 170.6-29 62.2-99.1 125.9-208.8 122.7-118.5-3.4-223-91.4-242.5-206.6-3.6-18.2 0-27.4 1.8-42.2-2.4 11.5-3.8 23.1-4.1 34.9v1.3c.2 139.6 113.6 252.5 253.2 252.3 122.9-.1 227.7-88.5 248.7-209.5.4-3.3.8-6.5 1.1-9.8 5.2-43-.4-86.6-16.4-126.9" style="fill:url(#b)"/><radialGradient id="c" cx="-7866.73" cy="8922.242" r="526.888" gradientTransform="matrix(.982 0 0 -.982 7973.807 9034.763)" gradientUnits="userSpaceOnUse"><stop offset=".3" style="stop-color:#960e18"/><stop offset=".351" style="stop-color:#b11927;stop-opacity:.74"/><stop offset=".435" style="stop-color:#db293d;stop-opacity:.343"/><stop offset=".497" style="stop-color:#f5334b;stop-opacity:9.400000e-02"/><stop offset=".53" style="stop-color:#ff3750;stop-opacity:0"/></radialGradient><path d="M494.1 174.3c-11-26.4-33.3-55-50.7-64 12.4 24.1 21.1 50 25.6 76.7v.5c19.5 55.7 16.7 116.9-7.9 170.6-29 62.2-99.1 125.9-208.8 122.7-118.5-3.4-223-91.4-242.5-206.6-3.6-18.2 0-27.4 1.8-42.2-2.4 11.5-3.8 23.1-4.1 34.9v1.3c.2 139.6 113.6 252.5 253.2 252.3 122.9-.1 227.7-88.5 248.7-209.5.4-3.3.8-6.5 1.1-9.8 5.2-43-.4-86.6-16.4-126.9" style="fill:url(#c)"/><radialGradient id="d" cx="-7800.325" cy="9260.909" r="381.667" gradientTransform="matrix(.982 0 0 -.982 7973.807 9034.763)" gradientUnits="userSpaceOnUse"><stop offset=".132" style="stop-color:#fff44f"/><stop offset=".252" style="stop-color:#ffdc3e"/><stop offset=".506" style="stop-color:#ff9d12"/><stop offset=".526" style="stop-color:#ff980e"/></radialGradient><path d="M371.3 204c.5.4 1.1.8 1.6 1.2-6.3-11.3-14.3-21.6-23.5-30.6C270.8 96 328.8 4.2 338.5-.5l.1-.1c-63.5 37.2-85 106-87 140.4 2.9-.2 5.9-.4 8.9-.4 45.9 0 88.2 24.7 110.8 64.6" style="fill:url(#d)"/><radialGradient id="e" cx="-7926.495" cy="8782.792" r="250.858" gradientTransform="matrix(.982 0 0 -.982 7973.807 9034.763)" gradientUnits="userSpaceOnUse"><stop offset=".353" style="stop-color:#3a8ee6"/><stop offset=".472" style="stop-color:#5c79f0"/><stop offset=".669" style="stop-color:#9059ff"/><stop offset="1" style="stop-color:#c139e6"/></radialGradient><path d="M260.7 219.7c-.4 6.3-22.6 28-30.4 28-71.9 0-83.5 43.5-83.5 43.5 3.2 36.6 28.7 66.8 59.5 82.7 1.4.7 2.8 1.4 4.3 2 2.5 1.1 4.9 2.1 7.4 3 10.6 3.7 21.7 5.9 32.9 6.3 126 5.9 150.4-150.6 59.5-196.1 21.4-2.8 43.2 2.5 60.9 14.8-22.6-39.9-64.9-64.6-110.7-64.7-3 0-5.9.2-8.9.4-25.4 1.7-49.6 11.1-69.6 26.8 3.9 3.3 8.2 7.6 17.4 16.6 17.1 17.1 61.1 34.6 61.2 36.7" style="fill:url(#e)"/><radialGradient id="f" cx="-7931.817" cy="8971.409" r="133.026" gradientTransform="matrix(.9545 -.2308 -.27 -1.1175 10267.805 8423.169)" gradientUnits="userSpaceOnUse"><stop offset=".206" style="stop-color:#9059ff;stop-opacity:0"/><stop offset=".278" style="stop-color:#8c4ff3;stop-opacity:6.400000e-02"/><stop offset=".747" style="stop-color:#7716a8;stop-opacity:.45"/><stop offset=".975" style="stop-color:#6e008b;stop-opacity:.6"/></radialGradient><path d="M260.7 219.7c-.4 6.3-22.6 28-30.4 28-71.9 0-83.5 43.5-83.5 43.5 3.2 36.6 28.7 66.8 59.5 82.7 1.4.7 2.8 1.4 4.3 2 2.5 1.1 4.9 2.1 7.4 3 10.6 3.7 21.7 5.9 32.9 6.3 126 5.9 150.4-150.6 59.5-196.1 21.4-2.8 43.2 2.5 60.9 14.8-22.6-39.9-64.9-64.6-110.7-64.7-3 0-5.9.2-8.9.4-25.4 1.7-49.6 11.1-69.6 26.8 3.9 3.3 8.2 7.6 17.4 16.6 17.1 17.1 61.1 34.6 61.2 36.7" style="fill:url(#f)"/><radialGradient id="g" cx="-7873.37" cy="9161.301" r="180.498" gradientTransform="matrix(.982 0 0 -.982 7973.807 9034.763)" gradientUnits="userSpaceOnUse"><stop offset="0" style="stop-color:#ffe226"/><stop offset=".121" style="stop-color:#ffdb27"/><stop offset=".295" style="stop-color:#ffc82a"/><stop offset=".502" style="stop-color:#ffa930"/><stop offset=".732" style="stop-color:#ff7e37"/><stop offset=".792" style="stop-color:#ff7139"/></radialGradient><path d="M170.3 158.2c2 1.3 3.7 2.4 5.2 3.5-5.8-20.2-6-41.5-.7-61.8-23.3 11.3-44 27.3-60.8 47 1.2 0 37.9-.7 56.3 11.3" style="fill:url(#g)"/><radialGradient id="h" cx="-7727.279" cy="9280.831" r="770.116" gradientTransform="matrix(.982 0 0 -.982 7973.807 9034.763)" gradientUnits="userSpaceOnUse"><stop offset=".113" style="stop-color:#fff44f"/><stop offset=".456" style="stop-color:#ff980e"/><stop offset=".622" style="stop-color:#ff5634"/><stop offset=".716" style="stop-color:#ff3647"/><stop offset=".904" style="stop-color:#e31587"/></radialGradient><path d="M9.8 274.3c19.5 115.2 124 203.3 242.5 206.6C362 484 432.1 420.3 461.1 358.2c24.5-53.7 27.3-114.8 7.9-170.6v-.4.4c9 58.5-20.8 115.2-67.4 153.6l-.1.3c-90.7 73.9-177.5 44.6-195 32.6-1.2-.6-2.5-1.2-3.7-1.8-52.9-25.3-74.7-73.4-70-114.8-25.6.4-49.1-14.4-59.9-37.7 28.2-17.3 63.4-18.7 92.9-3.7 29.9 13.6 64 14.9 94.9 3.7-.1-2.1-44.1-19.6-61.2-36.5-9.2-9-13.5-13.4-17.4-16.6-2.1-1.8-4.3-3.4-6.5-4.9-1.5-1-3.2-2.1-5.2-3.5-18.4-12-55.1-11.3-56.3-11.3h-.1c-10-12.7-9.3-54.6-8.7-63.3q-4.5 1.8-8.4 4.5c-8.8 6.3-17.1 13.4-24.7 21.2-8.7 8.7-16.6 18.2-23.7 28.3-16.2 23-27.8 49-33.9 76.6-.3.4-9.2 39.7-4.8 60" style="fill:url(#h)"/><radialGradient id="i" cx="-7976.017" cy="9823.985" r="564.057" gradientTransform="matrix(.1031 .9771 .6412 -.06776 -5155.366 8422.637)" gradientUnits="userSpaceOnUse"><stop offset="0" style="stop-color:#fff44f"/><stop offset=".06" style="stop-color:#ffe847"/><stop offset=".168" style="stop-color:#ffc830"/><stop offset=".304" style="stop-color:#ff980e"/><stop offset=".356" style="stop-color:#ff8b16"/><stop offset=".455" style="stop-color:#ff672a"/><stop offset=".57" style="stop-color:#ff3647"/><stop offset=".737" style="stop-color:#e31587"/></radialGradient><path d="M349.4 174.5c9.2 9.1 17.1 19.4 23.5 30.6 1.4 1 2.7 2.1 3.8 3.1C434 261 404 335.7 401.7 341c46.5-38.3 76.3-95 67.3-153.6-28.6-71.3-77.1-100-116.6-162.6-2-3.2-4-6.3-6-9.7-1.1-1.9-2-3.6-2.8-5.2-1.6-3.2-2.9-6.5-3.8-10 0-.3-.2-.6-.6-.7h-.5l-.1.1s-.1.1-.2.1c-9.8 4.6-67.8 96.4 10.8 175z" style="fill:url(#i)"/><radialGradient id="j" cx="-7873.37" cy="9094.897" r="480.72" gradientTransform="matrix(.982 0 0 -.982 7973.807 9034.763)" gradientUnits="userSpaceOnUse"><stop offset=".137" style="stop-color:#fff44f"/><stop offset=".48" style="stop-color:#ff980e"/><stop offset=".592" style="stop-color:#ff5634"/><stop offset=".655" style="stop-color:#ff3647"/><stop offset=".904" style="stop-color:#e31587"/></radialGradient><path d="M376.6 208.3c-1.1-1-2.4-2.1-3.8-3.1-.5-.4-1-.8-1.6-1.2-17.8-12.3-39.5-17.6-60.9-14.8 90.9 45.5 66.5 202-59.5 196.1-11.2-.5-22.3-2.6-32.9-6.3-2.5-.9-4.9-1.9-7.4-3-1.4-.7-2.9-1.3-4.3-2l.2.1c17.6 12 104.3 41.3 195-32.6l.1-.3c2.4-5.4 32.4-80-24.9-132.9" style="fill:url(#j)"/><radialGradient id="k" cx="-7747.201" cy="9068.334" r="526.17" gradientTransform="matrix(.982 0 0 -.982 7973.807 9034.763)" gradientUnits="userSpaceOnUse"><stop offset=".094" style="stop-color:#fff44f"/><stop offset=".231" style="stop-color:#ffe141"/><stop offset=".509" style="stop-color:#ffaf1e"/><stop offset=".626" style="stop-color:#ff980e"/></radialGradient><path d="M146.7 291.1s11.7-43.5 83.5-43.5c7.8 0 30-21.7 30.4-28-30.9 11.2-65 9.9-94.9-3.7-29.5-15-64.7-13.6-92.9 3.7 10.8 23.3 34.2 38 59.9 37.7-4.7 41.3 17.2 89.5 70 114.8 1.2.6 2.3 1.2 3.5 1.7-30.8-15.9-56.3-46.1-59.5-82.7" style="fill:url(#k)"/><linearGradient id="l" x1="465.416" x2="108.463" y1="440.741" y2="83.722" gradientTransform="matrix(.982 0 0 -.982 -1.496 510.756)" gradientUnits="userSpaceOnUse"><stop offset=".167" style="stop-color:#fff44f;stop-opacity:.8"/><stop offset=".266" style="stop-color:#fff44f;stop-opacity:.634"/><stop offset=".489" style="stop-color:#fff44f;stop-opacity:.217"/><stop offset=".6" style="stop-color:#fff44f;stop-opacity:0"/></linearGradient><path d="M494.1 174.3c-11-26.4-33.3-55-50.7-64 12.4 24.1 21.1 50 25.6 76.7v.4c-28.6-71.2-77-100-116.6-162.5-2-3.2-4-6.3-6-9.7-1.1-1.9-2-3.6-2.8-5.2-1.6-3.2-2.9-6.5-3.8-10 0-.3-.2-.6-.6-.7h-.5l-.1.1s-.1.1-.2.1l.1-.2c-63.5 37.2-85 106-87 140.4 2.9-.2 5.9-.4 8.9-.4 45.8.1 88.1 24.8 110.7 64.7-17.8-12.3-39.5-17.6-60.9-14.8 90.9 45.5 66.5 202-59.5 196.1-11.2-.5-22.3-2.6-32.9-6.3-2.5-.9-4.9-1.9-7.4-3-1.4-.7-2.9-1.3-4.3-2l.2.1c-1.2-.6-2.5-1.2-3.7-1.8 1.2.6 2.3 1.2 3.5 1.7-30.9-16-56.3-46.1-59.5-82.7 0 0 11.7-43.5 83.5-43.5 7.8 0 30-21.7 30.4-28-.1-2.1-44.1-19.6-61.2-36.5-9.2-9-13.5-13.4-17.4-16.6-2.1-1.8-4.3-3.4-6.5-4.9-5.8-20.2-6-41.5-.7-61.8-23.3 11.3-44 27.3-60.8 47h.1c-10-12.7-9.3-54.6-8.7-63.3q-4.5 1.8-8.4 4.5c-8.8 6.3-17.1 13.4-24.7 21.2-8.7 8.8-16.6 18.3-23.6 28.3-16.2 23-27.8 49-33.9 76.6l-.3 1.7c-.5 2.2-2.6 13.5-2.9 15.9-2 11.7-3.2 23.4-3.7 35.2v1.3C8 408 121.4 520.9 261 520.7c122.8-.2 227.6-88.6 248.6-209.6.4-3.3.8-6.5 1.1-9.8 5-43-.6-86.7-16.6-127m-25.1 13v.3z" style="fill:url(#l)"/></g></svg>